<svg viewBox="0 0 120 120" fill="none" xmlns="http://www.w3.org/2000/svg">
  <rect width="120" height="120" rx="16" fill="#7F54B3"/>
  <path d="M18 35c0-3.31 2.69-6 6-6h72c3.31 0 6 2.69 6 6v40c0 3.31-2.69 6-6 6H24c-3.31 0-6-2.69-6-6V35z" fill="#fff" fill-opacity="0.15"/>
  <path d="M30 42c1.7-2.4 3.8-3.6 6.4-3.6 3.8 0 6 2.6 6.6 7.8l3.6 22.2 7.8-16.8c1.4-3 3.2-4.5 5.4-4.5 3.2 0 5.2 2.6 5.8 7.8l3.2 19.8c1-7.8 2.8-14.2 5.4-19.2 1.2-2.4 2.8-3.6 4.8-3.6 1.4 0 2.6.5 3.4 1.5.8 1 1.2 2.2 1.2 3.5 0 1-.2 2-.7 3-1.8 3.6-3.2 7.8-4.4 12.6-1.2 5-1.9 9-2 12-.2 1.8-.6 3.2-1.4 4-.8.9-1.8 1.4-3 1.4-1.4 0-2.6-.5-3.4-1.6-.8-1-1.6-2.8-2.4-5.2l-3.4-18-7.4 15.4c-1.6 3.2-3 5.2-4 6-.8.6-1.8 1-3 1-1.8 0-3.2-1.2-4-3.4l-7.4-27c-.4-1.4-.6-2.4-.6-3.2 0-1.2.4-2.2 1.2-3 .8-.8 1.8-1.2 3-1.2 2 0 3.2 1.2 3.8 3.6l4 18.6 7.4-15.8" fill="white"/>
  <circle cx="30" cy="83" r="3" fill="#fff"/>
  <circle cx="60" cy="83" r="3" fill="#fff"/>
</svg>
